<svg width="30" height="30" viewBox="0 0 30 30" fill="none" xmlns="http://www.w3.org/2000/svg">
<path d="M22.1667 7.5H22.18M8.16667 1.5H21.5C25.1819 1.5 28.1667 4.48477 28.1667 8.16667V21.5C28.1667 25.1819 25.1819 28.1667 21.5 28.1667H8.16667C4.48477 28.1667 1.5 25.1819 1.5 21.5V8.16667C1.5 4.48477 4.48477 1.5 8.16667 1.5ZM20.1667 13.9933C20.3312 15.103 20.1417 16.2363 19.625 17.232C19.1083 18.2278 18.2909 19.0352 17.2888 19.5396C16.2868 20.0439 15.1513 20.2195 14.0437 20.0412C12.9362 19.863 11.913 19.3401 11.1198 18.5469C10.3266 17.7537 9.80364 16.7305 9.62542 15.623C9.4472 14.5154 9.62275 13.3799 10.1271 12.3778C10.6314 11.3758 11.4389 10.5583 12.4346 10.0417C13.4304 9.52499 14.5637 9.33545 15.6733 9.5C16.8052 9.66785 17.8531 10.1953 18.6623 11.0044C19.4714 11.8135 19.9988 12.8614 20.1667 13.9933Z" stroke="url(#paint0_linear_670_6)" stroke-width="3" stroke-linecap="round" stroke-linejoin="round"/>
<defs>
<linearGradient id="paint0_linear_670_6" x1="1.83337" y1="1.83331" x2="14.8334" y2="27.8333" gradientUnits="userSpaceOnUse">
<stop stop-color="#9567F8"/>
<stop offset="0.375" stop-color="#FF8484"/>
<stop offset="0.841346" stop-color="#FF4C64"/>
<stop offset="0.920673" stop-color="#FF875A"/>
<stop offset="1" stop-color="#FFC14F"/>
</linearGradient>
</defs>
</svg>
